if (_typeface_js && _typeface_js.loadFace) _typeface_js.loadFace({"glyphs":{"S":{"x_min":84.5,"x_max":636,"ha":711,"o":"m 636 253 q 622 346 636 305 q 577 419 608 386 q 499 482 547 453 q 385 540 452 511 q 293 586 330 565 q 234 629 256 607 q 202 676 212 651 q 193 735 193 701 q 238 841 193 797 q 367 885 283 885 q 478 868 428 885 q 569 823 528 851 l 583 919 q 492 956 545 942 q 372 970 440 970 q 262 952 312 970 q 175 904 212 935 q 117 828 138 872 q 97 729 97 783 q 110 639 97 678 q 153 569 123 601 q 230 510 183 537 q 347 451 277 482 q 438 405 401 428 q 498 360 476 383 q 530 308 520 336 q 540 246 540 280 q 483 119 540 164 q 342 74 427 74 q 206 96 269 74 q 98 146 142 118 l 84 48 q 194 6 130 23 q 338 -11 258 -11 q 456 7 401 -11 q 550 59 510 25 q 613 142 590 93 q 636 253 636 191 "},"/":{"x_min":-48.609375,"x_max":688.890625,"ha":718,"o":"m 688 950 l 606 968 l -48 -155 l 33 -172 l 688 950 "},"K":{"x_min":128,"x_max":818.453125,"ha":842,"o":"m 818 12 l 330 512 l 792 959 l 672 959 l 224 522 l 224 959 l 128 959 l 128 0 l 224 0 l 224 494 l 715 -9 l 818 12 "},"7":{"x_min":64,"x_max":664,"ha":739,"o":"m 664 869 l 664 939 l 64 939 l 76 856 l 559 856 l 186 11 l 275 -9 l 664 869 "},"d":{"x_min":68,"x_max":631,"ha":738,"o":"m 631 0 l 631 997 l 539 980 l 539 633 q 461 657 504 648 q 368 667 418 667 q 254 644 308 667 q 158 578 199 622 q 92 466 116 533 q 68 309 68 400 q 88 165 68 226 q 146 65 109 105 q 231 5 183 24 q 333 -14 279 -14 q 456 18 405 -14 q 544 95 507 51 l 561 0 l 631 0 m 539 186 q 447 100 494 133 q 341 68 400 68 q 211 130 262 68 q 161 314 161 193 q 177 435 161 383 q 221 520 193 486 q 288 571 249 554 q 370 588 326 588 q 461 578 422 588 q 539 549 500 568 l 539 186 "},",":{"x_min":45.828125,"x_max":227.78125,"ha":304,"o":"m 227 136 l 116 136 l 45 -172 l 94 -184 l 227 136 "},"Y":{"x_min":47.109375,"x_max":826.453125,"ha":872,"o":"m 826 959 l 722 959 l 436 482 l 141 968 l 47 949 l 386 397 l 386 0 l 482 0 l 482 398 l 826 959 "},"E":{"x_min":128,"x_max":642.0625,"ha":700,"o":"m 642 0 l 642 86 l 224 86 l 224 459 l 557 459 l 543 545 l 224 545 l 224 873 l 628 873 l 628 959 l 128 959 l 128 0 l 642 0 "},"y":{"x_min":43.0625,"x_max":625,"ha":667,"o":"m 625 657 l 530 657 l 336 105 l 131 665 l 43 648 l 291 -4 l 261 -83 q 215 -151 241 -132 q 150 -171 190 -171 q 120 -169 134 -171 q 95 -165 106 -168 l 108 -245 q 124 -248 115 -247 q 144 -250 133 -250 q 264 -213 218 -250 q 347 -81 311 -177 l 625 657 "},"\"":{"x_min":97.21875,"x_max":440.28125,"ha":538,"o":"m 440 939 l 329 939 l 359 679 l 411 668 l 440 939 m 206 939 l 97 939 l 125 679 l 177 668 l 206 939 "},"‹":{"x_min":54.171875,"x_max":359.71875,"ha":435,"o":"m 359 657 l 280 657 l 54 329 l 283 -7 l 354 9 l 159 329 l 359 657 "},"„":{"x_min":69.4375,"x_max":462.5,"ha":538,"o":"m 227 136 l 116 136 l 69 -161 l 120 -172 l 227 136 m 462 136 l 351 136 l 304 -161 l 355 -172 l 462 136 "},"g":{"x_min":32,"x_max":667.234375,"ha":698,"o":"m 255 65 q 291 57 273 61 q 334 48 309 54 l 398 37 q 521 -2 486 20 q 557 -64 557 -25 q 497 -146 557 -112 q 337 -181 437 -181 q 181 -153 240 -181 q 122 -73 122 -125 q 255 65 122 4 m 479 447 q 437 336 479 380 q 323 292 395 292 q 209 336 251 292 q 168 444 168 380 q 208 557 168 512 q 320 603 249 603 q 384 591 355 603 q 434 558 413 579 q 467 509 455 537 q 479 447 479 480 m 487 615 q 320 671 419 671 q 228 655 272 671 q 151 611 184 640 q 98 540 118 582 q 78 447 78 498 q 111 329 78 379 q 198 251 144 279 q 150 211 166 232 q 134 164 134 190 q 182 95 134 123 q 32 -79 32 18 q 54 -154 32 -122 q 118 -207 77 -186 q 213 -239 158 -229 q 332 -250 268 -250 q 452 -236 396 -250 q 551 -198 508 -223 q 619 -136 594 -173 q 645 -52 645 -99 q 587 57 645 20 q 419 114 529 94 l 370 123 q 296 138 325 132 q 252 150 268 144 q 230 164 236 157 q 224 182 224 172 q 266 229 224 205 q 294 225 280 226 q 323 224 308 224 q 416 239 372 224 q 494 283 460 254 q 548 353 528 312 q 569 447 569 394 q 534 564 569 511 l 667 578 l 651 668 l 487 615 "},"–":{"x_min":81,"x_max":552,"ha":634,"o":"m 552 349 l 552 438 l 81 438 l 81 349 l 552 349 "},"ƒ":{"x_min":93.125,"x_max":489,"ha":529,"o":"m 200 629 l 105 629 l 93 552 l 188 552 l 101 0 l 190 0 l 279 552 l 432 552 l 432 629 l 290 629 q 293 649 290 629 q 301 691 297 668 q 308 734 305 714 q 311 753 311 753 q 347 841 322 814 q 427 869 373 869 q 459 867 443 869 q 489 863 476 866 l 489 946 q 462 949 477 948 q 429 951 447 951 q 286 907 336 951 q 222 766 237 863 q 218 744 222 766 q 211 697 215 722 q 203 651 207 672 q 200 629 200 629 "},"e":{"x_min":67,"x_max":616,"ha":683,"o":"m 616 341 q 600 469 616 409 q 550 574 584 529 q 467 645 517 619 q 350 671 417 671 q 237 647 289 671 q 148 579 186 623 q 88 471 110 534 q 67 329 67 408 q 89 179 67 244 q 150 72 111 115 q 243 7 189 29 q 363 -14 297 -14 q 502 11 439 -14 q 614 78 565 37 l 600 162 q 491 91 549 117 q 367 65 434 65 q 213 132 267 65 q 160 322 160 199 l 616 322 l 616 341 m 517 394 l 162 394 q 225 543 176 489 q 351 597 273 597 q 474 539 431 597 q 517 394 517 482 "},"J":{"x_min":37,"x_max":383,"ha":505,"o":"m 383 233 l 383 959 l 287 959 l 287 234 q 247 113 287 152 q 137 75 207 75 q 84 78 109 75 q 37 88 59 81 l 50 0 q 90 -5 68 -2 q 135 -8 112 -8 q 314 51 245 -8 q 383 233 383 110 "},"|":{"x_min":144,"x_max":226,"ha":370,"o":"m 226 -248 l 226 1004 l 144 990 l 144 -262 l 226 -248 "},"^":{"x_min":129.171875,"x_max":497.21875,"ha":633,"o":"m 497 770 l 359 965 l 275 965 l 129 764 l 187 764 l 315 877 l 447 759 l 497 770 "},"q":{"x_min":68,"x_max":626,"ha":733,"o":"m 626 -239 l 626 624 q 513 654 570 642 q 387 667 456 667 q 260 644 319 667 q 159 578 202 622 q 92 466 116 533 q 68 309 68 400 q 88 165 68 226 q 145 65 109 105 q 229 5 181 24 q 331 -14 277 -14 q 449 16 401 -14 q 534 86 498 47 l 534 -254 l 626 -239 m 534 183 q 444 99 491 131 q 341 68 397 68 q 211 130 262 68 q 161 314 161 193 q 222 521 161 454 q 383 588 284 588 q 468 579 433 588 q 534 560 502 571 l 534 183 "},"b":{"x_min":107,"x_max":665.0625,"ha":733,"o":"m 665 347 q 644 490 665 429 q 587 591 623 551 q 503 651 551 632 q 401 671 455 671 q 283 640 332 671 q 199 570 235 609 l 199 997 l 107 980 l 107 34 q 219 3 162 15 q 345 -8 276 -8 q 472 13 413 -8 q 573 79 530 35 q 640 190 616 123 q 665 347 665 257 m 572 343 q 555 220 572 272 q 509 136 538 169 q 439 86 480 102 q 350 71 398 71 q 265 77 300 71 q 199 97 230 84 l 199 475 q 289 557 243 526 q 391 589 336 589 q 521 526 470 589 q 572 343 572 464 "},"D":{"x_min":128,"x_max":888,"ha":974,"o":"m 888 480 q 854 676 888 587 q 758 826 821 764 q 601 924 694 889 q 389 959 508 959 l 128 959 l 128 0 l 385 0 q 593 33 500 0 q 751 129 686 66 q 852 280 817 191 q 888 480 888 369 m 789 479 q 761 307 789 380 q 681 184 733 233 q 555 110 629 134 q 390 86 482 86 l 224 86 l 224 873 l 390 873 q 553 847 479 873 q 679 773 626 822 q 760 650 732 724 q 789 479 789 576 "},"z":{"x_min":57,"x_max":565.109375,"ha":623,"o":"m 565 0 l 552 76 l 162 76 l 554 586 l 554 657 l 77 657 l 90 581 l 448 581 l 57 70 l 57 0 l 565 0 "},"w":{"x_min":47.21875,"x_max":969.453125,"ha":1014,"o":"m 969 657 l 877 657 l 713 122 l 550 660 l 469 660 l 305 122 l 136 668 l 47 651 l 265 -4 l 341 -4 l 508 534 l 673 -4 l 751 -4 l 969 657 "},"$":{"x_min":74.5625,"x_max":661,"ha":744,"o":"m 480 935 l 496 1031 l 428 1048 l 412 942 q 395 944 403 944 q 378 944 387 944 q 262 928 314 944 q 171 880 209 912 q 114 805 134 849 q 94 705 94 760 q 109 617 94 654 q 155 551 124 579 q 230 500 185 522 q 337 456 276 477 l 278 76 q 178 103 226 86 q 87 142 130 120 l 74 56 q 162 23 114 38 q 265 0 210 7 l 240 -156 l 306 -171 l 333 -6 l 356 -6 q 580 65 499 -6 q 661 255 661 137 q 601 411 661 352 q 413 517 542 471 l 467 857 q 541 837 506 850 q 609 807 577 823 l 623 894 q 556 918 592 907 q 480 935 520 928 m 344 70 l 401 435 q 487 395 453 416 q 541 352 521 375 q 568 304 560 329 q 576 247 576 278 q 522 119 576 168 q 365 70 469 70 l 344 70 m 401 867 l 349 539 q 218 609 258 573 q 179 711 179 645 q 226 824 179 780 q 369 869 273 869 q 384 869 377 869 q 401 867 392 869 "},"™":{"x_min":49.71875,"x_max":1000,"ha":1113,"o":"m 1000 479 l 1000 958 l 905 958 l 752 565 l 599 958 l 504 958 l 504 479 l 562 479 l 562 846 l 724 478 l 777 478 l 940 846 l 940 479 l 1000 479 m 417 898 l 407 958 l 49 958 l 49 898 l 201 898 l 201 479 l 266 479 l 266 898 l 417 898 "},"\\":{"x_min":29.171875,"x_max":766.671875,"ha":718,"o":"m 766 -155 l 111 966 l 29 950 l 684 -173 l 766 -155 "},"’":{"x_min":73.609375,"x_max":231.9375,"ha":304,"o":"m 231 959 l 122 959 l 73 661 l 125 649 l 231 959 "},"~":{"x_min":77.78125,"x_max":488.890625,"ha":567,"o":"m 488 455 l 427 469 q 405 412 418 429 q 377 396 393 396 q 343 403 361 396 q 287 430 325 411 q 233 457 255 448 q 183 467 211 467 q 77 323 98 467 l 140 311 q 161 368 148 351 q 190 385 173 385 q 224 376 205 385 q 279 348 243 368 q 333 322 311 330 q 383 314 355 314 q 488 455 468 314 "},"-":{"x_min":85,"x_max":421,"ha":506,"o":"m 421 347 l 421 439 l 85 439 l 85 347 l 421 347 "},"Q":{"x_min":85,"x_max":950,"ha":1038,"o":"m 950 480 q 918 681 950 590 q 830 838 887 772 q 694 940 773 904 q 518 977 615 977 q 342 940 422 977 q 205 838 262 903 q 116 680 148 772 q 85 478 85 587 q 167 168 85 284 q 398 -5 250 51 l 902 -201 l 920 -111 l 619 1 q 754 59 694 18 q 858 161 815 100 q 926 304 902 223 q 950 480 950 385 m 851 478 q 827 308 851 385 q 760 177 803 232 q 655 93 716 123 q 518 64 594 64 q 381 93 443 64 q 276 178 319 123 q 208 310 232 233 q 184 479 184 386 q 207 648 184 572 q 274 778 231 724 q 379 861 318 832 q 516 891 440 891 q 653 861 591 891 q 758 777 715 831 q 826 647 802 722 q 851 478 851 571 "},"M":{"x_min":144,"x_max":1115,"ha":1259,"o":"m 1115 0 l 1115 959 l 960 959 l 630 122 l 301 959 l 144 959 l 144 0 l 226 0 l 226 818 l 591 -6 l 666 -6 l 1029 818 l 1029 0 l 1115 0 "},"C":{"x_min":85,"x_max":811.78125,"ha":901,"o":"m 811 78 l 797 170 q 670 97 739 125 q 524 70 602 70 q 383 99 446 70 q 275 183 320 129 q 207 313 231 238 q 184 481 184 389 q 207 647 184 572 q 275 777 231 722 q 383 861 320 831 q 525 891 446 891 q 661 864 599 891 q 781 797 724 838 l 796 895 q 675 954 742 932 q 526 977 608 977 q 346 940 428 977 q 207 838 265 903 q 116 680 148 772 q 85 478 85 587 q 116 275 85 366 q 205 119 147 184 q 342 18 262 54 q 519 -18 422 -18 q 681 9 606 -18 q 811 78 757 37 "},"[":{"x_min":135,"x_max":487.890625,"ha":566,"o":"m 487 -146 l 476 -74 l 224 -74 l 224 886 l 482 886 l 482 958 l 135 958 l 135 -146 l 487 -146 "},"L":{"x_min":128,"x_max":607.328125,"ha":648,"o":"m 607 0 l 593 86 l 224 86 l 224 958 l 128 958 l 128 0 l 607 0 "},"!":{"x_min":132,"x_max":240,"ha":372,"o":"m 228 958 l 145 958 l 145 265 l 228 277 l 228 958 m 240 0 l 240 136 l 132 136 l 132 0 l 240 0 "}," ":{"x_min":0,"x_max":0,"ha":314},"{":{"x_min":60.78125,"x_max":574.9375,"ha":651,"o":"m 574 -146 l 562 -74 l 443 -74 q 355 -45 380 -74 q 331 33 331 -16 q 340 128 331 76 q 349 226 349 180 q 338 300 349 269 q 309 351 328 330 q 265 384 291 372 q 208 404 238 397 l 208 407 q 265 426 238 414 q 309 459 291 439 q 338 511 328 480 q 349 584 349 541 q 340 682 349 630 q 331 776 331 733 q 358 856 331 827 q 444 886 385 886 l 568 886 l 568 958 l 441 958 q 290 910 338 958 q 243 774 243 863 q 251 679 243 726 q 260 583 260 633 q 248 516 260 543 q 218 472 237 489 q 172 448 198 455 q 113 442 145 442 l 60 442 l 71 371 l 112 371 q 218 339 176 371 q 260 227 260 308 q 251 129 260 176 q 243 34 243 83 q 290 -99 243 -52 q 441 -146 338 -146 l 574 -146 "},"X":{"x_min":50,"x_max":827.78125,"ha":882,"o":"m 387 500 l 50 0 l 154 0 q 175 31 154 0 q 227 111 195 63 q 296 215 259 159 q 365 318 333 271 q 418 398 397 366 q 438 429 438 429 q 461 396 438 429 q 515 315 483 364 q 586 210 548 266 q 657 105 625 154 q 711 24 690 56 q 733 -8 733 -8 l 827 12 l 493 503 l 800 959 l 695 959 l 441 574 l 177 965 l 83 946 l 387 500 "},"P":{"x_min":128,"x_max":679,"ha":740,"o":"m 679 688 q 595 888 679 819 q 365 958 511 958 l 128 958 l 128 0 l 224 0 l 224 404 l 343 404 q 478 422 416 404 q 584 475 540 440 q 654 564 629 510 q 679 688 679 617 m 582 685 q 519 537 582 586 q 347 489 457 489 l 224 489 l 224 873 l 358 873 q 525 825 468 873 q 582 685 582 778 "},"%":{"x_min":79,"x_max":1143,"ha":1222,"o":"m 508 685 q 491 795 508 747 q 446 879 474 844 q 378 931 417 913 q 294 950 340 950 q 208 931 248 950 q 140 879 169 913 q 95 795 112 844 q 79 685 79 747 q 95 575 79 624 q 140 492 112 526 q 208 440 169 458 q 294 422 248 422 q 378 440 340 422 q 446 492 417 458 q 491 575 474 526 q 508 685 508 624 m 946 930 l 873 948 l 274 8 l 345 -9 l 946 930 m 426 686 q 393 545 426 602 q 295 489 360 489 q 238 504 263 489 q 196 545 213 519 q 170 608 179 572 q 161 686 161 644 q 194 825 161 769 q 292 882 227 882 q 349 866 324 882 q 391 825 374 851 q 416 763 407 798 q 426 686 426 727 m 1143 253 q 1126 362 1143 314 q 1080 446 1109 411 q 1012 498 1051 480 q 927 517 973 517 q 843 498 882 517 q 775 446 804 480 q 730 362 747 411 q 714 253 714 314 q 730 143 714 191 q 775 59 747 94 q 843 7 804 25 q 927 -11 882 -11 q 1012 7 973 -11 q 1080 59 1051 25 q 1126 143 1109 94 q 1143 253 1143 191 m 1060 252 q 1027 113 1060 169 q 929 57 994 57 q 872 72 897 57 q 830 113 847 87 q 805 175 814 140 q 796 252 796 211 q 829 393 796 336 q 928 450 862 450 q 1026 393 993 450 q 1060 252 1060 336 "},"#":{"x_min":61,"x_max":839,"ha":900,"o":"m 286 250 l 543 250 l 504 -2 l 577 -2 l 616 250 l 809 250 l 797 327 l 629 327 l 673 611 l 839 611 l 839 689 l 686 689 l 725 933 l 654 948 l 612 689 l 355 689 l 395 941 l 322 941 l 281 689 l 88 689 l 101 611 l 269 611 l 224 327 l 61 327 l 61 250 l 212 250 l 173 5 l 245 -9 l 286 250 m 343 611 l 600 611 l 555 327 l 298 327 l 343 611 "},"_":{"x_min":1,"x_max":645,"ha":646,"o":"m 645 -146 l 645 -71 l 1 -71 l 1 -146 l 645 -146 "},"+":{"x_min":79,"x_max":711,"ha":792,"o":"m 711 432 l 711 507 l 436 507 l 436 787 l 355 787 l 355 507 l 79 507 l 79 432 l 355 432 l 355 151 l 436 151 l 436 432 l 711 432 "},"":{"x_min":69,"x_max":894,"ha":963,"o":"m 894 -278 l 894 1002 l 754 1002 l 713 1111 l 249 1111 l 208 1002 l 69 1002 l 69 232 q 101 218 88 232 q 113 187 113 205 q 101 155 113 168 q 69 143 88 143 l 69 -278 l 356 -278 l 367 -259 l 593 -259 l 604 -278 l 894 -278 m 555 782 l 635 782 l 635 763 l 576 763 l 576 671 l 628 671 l 628 651 l 576 651 l 576 542 l 555 542 l 555 782 m 255 782 l 276 782 l 276 672 l 341 672 l 341 782 l 362 782 l 362 543 l 341 543 l 341 653 l 276 653 l 276 543 l 255 543 l 255 782 m 638 547 l 638 569 q 652 563 644 566 q 666 561 660 561 q 689 591 689 561 l 689 782 l 711 782 l 711 591 q 667 542 711 542 q 651 543 660 542 q 638 547 642 544 m 726 449 l 737 449 l 737 415 l 766 449 l 780 449 l 755 420 l 781 385 l 769 385 l 747 412 l 737 403 l 737 385 l 726 385 l 726 449 m 677 406 l 660 406 l 660 385 l 650 385 l 650 449 l 678 449 q 695 442 689 449 q 701 429 701 436 q 687 408 701 412 l 703 385 l 691 385 l 677 406 m 591 383 q 568 392 576 383 q 559 416 559 402 q 568 439 559 429 q 591 450 576 450 q 615 439 606 450 q 625 416 625 429 q 615 392 625 402 q 591 383 606 383 m 513 417 l 531 449 l 544 449 l 519 408 l 519 385 l 508 385 l 508 408 l 482 449 l 495 449 l 513 417 m 268 449 l 313 449 l 313 439 l 279 439 l 279 422 l 309 422 l 309 412 l 279 412 l 279 394 l 313 394 l 313 385 l 268 385 l 268 449 m 183 449 l 193 449 l 227 404 l 227 449 l 239 449 l 239 385 l 229 385 l 194 429 l 194 385 l 183 385 l 183 449 m 334 449 l 345 449 l 359 400 l 360 400 l 375 449 l 386 449 l 400 400 l 402 400 l 416 449 l 427 449 l 407 383 l 396 383 l 381 431 l 380 431 l 366 383 l 355 383 l 334 449 m 453 665 q 474 709 474 687 q 469 728 474 720 q 456 735 464 735 q 442 728 448 735 q 437 709 437 720 q 441 688 437 698 q 453 665 446 679 m 474 587 l 446 641 q 426 595 426 620 q 432 569 426 580 q 449 558 438 558 q 464 567 456 558 q 474 587 471 576 m 677 415 q 690 427 690 415 q 676 439 690 439 l 661 439 l 661 415 l 677 415 m 590 393 q 606 399 600 393 q 613 416 613 406 q 606 432 613 424 q 590 440 600 440 q 575 432 581 440 q 570 416 570 424 q 575 399 570 406 q 590 393 581 393 m 484 608 q 490 628 487 617 q 496 649 494 639 l 515 645 q 507 617 512 630 q 496 591 502 603 l 519 550 l 503 538 l 487 572 l 485 572 q 471 549 480 559 q 448 538 461 538 q 416 553 428 538 q 405 592 405 569 q 437 655 405 630 q 423 682 428 671 q 417 709 417 694 q 427 738 417 725 q 456 752 438 752 q 484 738 475 752 q 494 709 494 725 q 484 678 494 693 q 461 651 475 664 l 484 608 "},"‚":{"x_min":63.890625,"x_max":222.21875,"ha":304,"o":"m 222 136 l 112 136 l 63 -161 l 115 -172 l 222 136 "},")":{"x_min":68.34375,"x_max":456,"ha":553,"o":"m 456 439 q 435 605 456 527 q 376 750 414 682 q 282 882 337 819 q 160 1004 228 944 l 68 984 q 287 725 214 855 q 360 441 360 595 q 292 161 360 280 q 89 -52 225 43 l 104 -138 q 365 112 275 -29 q 456 439 456 254 "},"'":{"x_min":97.21875,"x_max":206.9375,"ha":304,"o":"m 206 939 l 97 939 l 125 679 l 177 668 l 206 939 "},"}":{"x_min":76.0625,"x_max":589.84375,"ha":651,"o":"m 589 372 l 580 441 l 538 441 q 479 447 506 441 q 432 471 452 454 q 402 516 413 488 q 391 584 391 543 q 400 681 391 634 q 409 777 409 728 q 361 912 409 866 q 210 958 313 958 l 76 958 l 88 886 l 207 886 q 294 858 268 886 q 321 778 321 830 q 311 683 321 735 q 302 585 302 631 q 340 459 302 499 q 444 406 379 420 l 444 403 q 340 351 379 389 q 302 226 302 312 q 311 129 302 181 q 321 34 321 77 q 294 -45 321 -17 q 206 -74 267 -74 l 83 -74 l 83 -146 l 210 -146 q 361 -98 313 -146 q 409 35 409 -51 q 400 130 409 84 q 391 227 391 177 q 432 340 391 309 q 537 372 473 372 l 589 372 "},"‰":{"x_min":81,"x_max":1038,"ha":1120,"o":"m 1038 479 q 1003 681 1038 589 q 906 838 968 772 q 755 940 843 903 q 558 977 667 977 q 363 940 451 977 q 212 837 275 903 q 115 680 150 771 q 81 479 81 589 q 115 278 81 369 q 212 120 150 186 q 363 18 275 55 q 560 -18 451 -18 q 756 18 668 -18 q 907 121 844 55 q 1003 278 969 187 q 1038 479 1038 369 m 991 479 q 959 290 991 375 q 872 146 928 205 q 736 54 816 87 q 561 22 657 22 q 386 54 466 22 q 250 146 307 87 q 161 290 192 205 q 130 479 130 375 q 161 668 130 583 q 248 812 192 753 q 384 904 304 871 q 559 937 463 937 q 734 904 654 937 q 870 812 813 871 q 959 668 927 753 q 991 479 991 583 m 617 449 q 702 502 669 464 q 735 602 735 540 q 685 719 735 677 q 552 762 635 762 l 401 762 l 401 214 l 473 214 l 473 438 l 540 438 l 708 210 l 786 225 l 617 449 m 549 695 q 631 670 603 695 q 660 600 660 645 q 628 526 660 551 q 543 502 597 502 l 473 502 l 473 695 l 549 695 "},"a":{"x_min":65,"x_max":577,"ha":678,"o":"m 577 0 l 577 468 q 356 671 577 671 q 228 654 285 671 q 112 613 170 638 l 124 531 q 236 574 179 558 q 351 590 293 590 q 450 560 413 590 q 487 463 487 530 l 487 420 q 296 390 376 409 q 165 340 216 370 q 89 266 113 309 q 65 165 65 223 q 119 31 65 77 q 260 -14 174 -14 q 389 15 331 -14 q 493 87 447 44 l 508 0 l 577 0 m 487 162 q 383 90 438 117 q 275 63 327 63 q 189 90 222 63 q 157 170 157 117 q 172 232 157 204 q 225 283 187 260 q 326 322 262 305 q 487 348 390 338 l 487 162 "},"T":{"x_min":49,"x_max":767.890625,"ha":807,"o":"m 767 872 l 754 958 l 49 958 l 49 872 l 360 872 l 360 0 l 454 0 l 454 872 l 767 872 "},"—":{"x_min":81,"x_max":1185,"ha":1267,"o":"m 1185 350 l 1185 438 l 81 438 l 81 350 l 1185 350 "},"=":{"x_min":107,"x_max":732,"ha":839,"o":"m 732 581 l 732 664 l 107 664 l 107 581 l 732 581 m 732 275 l 732 358 l 107 358 l 107 275 l 732 275 "},"N":{"x_min":128,"x_max":851,"ha":979,"o":"m 851 0 l 851 959 l 761 959 l 761 176 l 218 959 l 128 959 l 128 0 l 218 0 l 218 807 l 777 0 l 851 0 "},"2":{"x_min":69,"x_max":661.28125,"ha":743,"o":"m 661 0 l 648 82 l 191 82 l 481 384 q 556 469 524 430 q 607 545 587 508 q 636 620 626 582 q 646 701 646 658 q 573 887 646 818 q 369 957 500 957 q 214 927 281 957 q 94 853 146 897 l 107 761 q 226 842 163 810 q 363 874 290 874 q 500 827 451 874 q 550 696 550 780 q 543 633 550 662 q 520 573 536 604 q 478 509 504 543 q 415 436 452 476 l 69 68 l 69 0 l 661 0 "},"j":{"x_min":-8.15625,"x_max":228,"ha":324,"o":"m 228 880 q 209 927 228 908 q 162 947 190 947 q 115 927 134 947 q 96 880 96 908 q 115 833 96 852 q 162 814 134 814 q 209 833 190 814 q 228 880 228 852 m 207 -101 l 207 657 l 117 657 l 117 -91 q 98 -150 117 -132 q 46 -169 79 -169 q -8 -163 14 -169 l 5 -245 q 29 -250 14 -250 q 58 -250 44 -250 q 165 -215 123 -250 q 207 -101 207 -180 "},"Z":{"x_min":79,"x_max":770.71875,"ha":844,"o":"m 770 0 l 758 82 l 195 82 l 761 890 l 761 959 l 106 959 l 119 877 l 645 877 l 79 68 l 79 0 l 770 0 "},"u":{"x_min":101,"x_max":619,"ha":726,"o":"m 619 0 l 619 657 l 527 657 l 527 181 q 420 98 472 128 q 314 69 367 69 q 222 104 252 69 q 193 203 193 139 l 193 657 l 101 657 l 101 187 q 148 39 101 92 q 296 -14 196 -14 q 420 17 363 -14 q 532 96 478 48 l 547 0 l 619 0 "},"1":{"x_min":40.109375,"x_max":346,"ha":493,"o":"m 346 0 l 346 943 l 270 943 l 40 837 l 52 762 l 254 843 l 254 0 l 346 0 "},"›":{"x_min":73.609375,"x_max":379.171875,"ha":435,"o":"m 379 327 l 150 664 l 79 648 l 275 327 l 73 0 l 152 0 l 379 327 "},"k":{"x_min":107,"x_max":625.390625,"ha":648,"o":"m 625 8 l 296 363 l 601 657 l 486 657 l 199 375 l 199 997 l 107 980 l 107 0 l 199 0 l 199 348 l 525 -9 l 625 8 "},"<":{"x_min":81,"x_max":689,"ha":792,"o":"m 689 123 l 689 213 l 175 470 l 689 726 l 689 815 l 81 505 l 81 433 l 689 123 "},"t":{"x_min":37,"x_max":400.21875,"ha":457,"o":"m 400 0 l 386 76 q 357 72 375 74 q 325 70 340 70 q 250 92 272 70 q 228 165 228 115 l 228 579 l 391 579 l 379 657 l 228 657 l 228 900 l 138 884 l 138 657 l 37 657 l 37 579 l 138 579 l 138 150 q 184 24 138 60 q 308 -11 230 -11 q 361 -7 337 -11 q 400 0 384 -4 "},"W":{"x_min":66.671875,"x_max":1361.109375,"ha":1425,"o":"m 1361 959 l 1265 959 l 1029 147 l 762 959 l 663 959 l 400 147 l 161 968 l 66 947 l 354 -1 l 434 -1 l 711 827 l 988 -1 l 1072 -1 l 1361 959 "},"v":{"x_min":43.0625,"x_max":611.109375,"ha":653,"o":"m 611 657 l 516 657 l 327 106 l 133 665 l 43 648 l 281 -6 l 368 -6 l 611 657 "},">":{"x_min":103,"x_max":711,"ha":792,"o":"m 711 433 l 711 505 l 103 815 l 103 725 l 616 468 l 103 212 l 103 123 l 711 433 "},"s":{"x_min":62.71875,"x_max":544,"ha":609,"o":"m 544 178 q 530 254 544 221 q 486 311 516 286 q 414 353 457 335 q 313 386 371 371 q 197 433 229 408 q 166 497 166 457 q 198 564 166 538 q 299 591 231 591 q 397 577 347 591 q 490 539 446 563 l 506 627 q 411 659 461 646 q 301 672 360 672 q 138 621 198 672 q 78 493 78 571 q 89 423 78 453 q 127 370 101 393 q 192 331 153 347 q 286 300 232 314 q 367 274 335 288 q 419 247 400 261 q 447 214 439 232 q 456 171 456 196 q 416 93 456 121 q 307 65 376 65 q 182 86 240 65 q 78 136 124 107 l 62 47 q 169 6 105 24 q 299 -12 232 -12 q 478 38 413 -12 q 544 178 544 88 "},"B":{"x_min":128,"x_max":689,"ha":760,"o":"m 689 276 q 637 429 689 372 q 500 510 586 486 q 606 589 567 537 q 646 719 646 641 q 572 892 646 827 q 350 958 498 958 l 128 958 l 128 0 l 348 0 q 488 17 425 0 q 595 69 551 34 q 664 155 640 104 q 689 276 689 207 m 552 715 q 499 591 552 640 q 344 542 447 542 l 222 542 l 222 875 l 347 875 q 501 832 451 875 q 552 715 552 790 m 595 270 q 530 131 595 180 q 357 83 466 83 l 222 83 l 222 463 l 351 463 q 529 416 464 463 q 595 270 595 369 "},"…":{"x_min":107,"x_max":857,"ha":963,"o":"m 857 0 l 857 136 l 747 136 l 747 0 l 857 0 m 535 0 l 535 136 l 427 136 l 427 0 l 535 0 m 215 0 l 215 136 l 107 136 l 107 0 l 215 0 "},"?":{"x_min":64.78125,"x_max":613,"ha":691,"o":"m 613 740 q 592 838 613 794 q 535 913 572 882 q 449 960 499 943 q 339 977 399 977 q 189 950 259 977 q 64 882 120 924 l 77 789 q 198 863 135 835 q 335 891 261 891 q 466 850 417 891 q 516 736 516 810 q 505 673 516 701 q 470 618 495 644 q 406 566 446 592 q 307 511 365 540 l 277 494 l 277 263 l 352 277 l 352 446 q 464 505 417 476 q 544 569 511 535 q 595 644 578 603 q 613 740 613 686 m 370 0 l 370 136 l 262 136 l 262 0 l 370 0 "},"H":{"x_min":128,"x_max":852,"ha":980,"o":"m 852 0 l 852 959 l 756 959 l 756 545 l 224 545 l 224 959 l 128 959 l 128 0 l 224 0 l 224 459 l 756 459 l 756 0 l 852 0 "},"c":{"x_min":67,"x_max":586.453125,"ha":648,"o":"m 586 61 l 573 144 q 474 83 522 100 q 373 67 426 67 q 217 137 273 67 q 160 329 160 207 q 215 521 160 451 q 365 592 271 592 q 470 572 422 592 q 565 512 518 553 l 580 604 q 487 652 540 633 q 367 671 433 671 q 249 648 304 671 q 154 582 194 626 q 90 475 114 539 q 67 327 67 411 q 89 182 67 245 q 152 75 112 119 q 246 8 192 31 q 364 -14 301 -14 q 484 4 430 -14 q 586 61 537 23 "},"&":{"x_min":61,"x_max":932.234375,"ha":949,"o":"m 932 15 l 729 221 q 791 365 765 285 q 833 540 816 444 l 746 558 q 714 405 735 474 q 668 282 694 336 l 387 567 q 309 663 333 622 q 285 756 285 704 q 323 852 285 814 q 436 891 362 891 q 539 872 486 891 q 647 818 593 853 l 665 914 q 559 958 615 942 q 439 974 503 974 q 334 956 380 974 q 255 909 287 939 q 206 838 223 879 q 189 751 189 797 q 214 637 189 685 q 289 536 240 589 q 197 485 239 513 q 125 421 155 457 q 78 341 95 385 q 61 243 61 297 q 81 137 61 185 q 142 55 102 89 q 238 3 181 22 q 365 -15 294 -15 q 539 25 461 -15 q 679 144 618 65 l 833 -8 l 932 15 m 621 204 q 504 100 568 133 q 366 67 440 67 q 281 80 320 67 q 215 119 242 94 q 173 178 188 144 q 158 251 158 211 q 207 383 158 326 q 347 478 256 440 l 621 204 "},"I":{"x_min":137,"x_max":233,"ha":372,"o":"m 233 0 l 233 959 l 137 959 l 137 0 l 233 0 "},"•":{"x_min":127.78125,"x_max":451.390625,"ha":579,"o":"m 451 483 l 429 634 l 290 657 l 151 634 l 127 483 l 151 332 l 290 308 l 429 332 l 451 483 "},"G":{"x_min":85,"x_max":850,"ha":964,"o":"m 850 79 l 850 503 l 511 503 l 525 417 l 756 417 l 756 129 q 656 85 707 100 q 536 70 604 70 q 386 99 451 70 q 276 181 321 128 q 207 311 231 235 q 184 479 184 386 q 207 648 184 572 q 274 778 231 724 q 381 861 318 832 q 525 891 445 891 q 674 864 608 891 q 793 795 740 838 l 809 893 q 684 955 754 934 q 526 977 615 977 q 344 940 426 977 q 205 838 262 903 q 116 680 147 772 q 85 478 85 587 q 115 277 85 368 q 203 120 146 186 q 344 18 261 54 q 534 -18 427 -18 q 705 8 627 -18 q 850 79 783 35 "},"(":{"x_min":97,"x_max":484.28125,"ha":552,"o":"m 484 -113 q 266 144 338 13 q 194 429 194 275 q 259 709 194 590 q 463 923 325 827 l 448 1009 q 186 758 276 900 q 97 432 97 616 q 117 266 97 343 q 176 120 138 188 q 269 -11 214 51 q 392 -133 324 -73 l 484 -113 "},"`":{"x_min":180.5625,"x_max":433.328125,"ha":633,"o":"m 433 764 l 300 976 l 180 950 l 369 764 l 433 764 "},"U":{"x_min":112,"x_max":833,"ha":946,"o":"m 833 365 l 833 959 l 737 959 l 737 365 q 669 149 737 228 q 471 71 602 71 q 355 92 405 71 q 273 153 306 114 q 224 248 241 193 q 208 371 208 304 l 208 959 l 112 959 l 112 358 q 136 205 112 275 q 206 87 160 136 q 318 12 252 39 q 470 -15 385 -15 q 621 12 555 -15 q 735 88 688 39 q 807 208 782 137 q 833 365 833 278 "},"◊":{"x_min":97.4375,"x_max":1000,"ha":1113,"o":"m 1000 479 l 1000 958 l 905 958 l 752 565 l 600 958 l 505 958 l 505 479 l 563 479 l 563 846 l 725 478 l 777 478 l 940 846 l 940 479 l 1000 479 m 229 472 q 340 507 296 472 q 385 606 385 542 q 354 694 385 663 q 255 755 323 726 q 184 795 204 777 q 164 845 164 813 q 185 890 164 873 q 244 908 206 908 q 299 898 273 908 q 351 874 326 889 l 362 937 q 310 957 339 949 q 247 965 282 965 q 143 930 184 965 q 103 840 103 895 q 109 792 103 812 q 132 757 116 773 q 173 726 148 741 q 234 696 198 712 q 301 656 281 677 q 322 602 322 635 q 295 547 322 566 q 231 529 269 529 q 164 540 195 529 q 104 569 133 551 l 97 505 q 156 481 123 490 q 229 472 189 472 "},"F":{"x_min":128,"x_max":608.71875,"ha":663,"o":"m 608 872 l 608 958 l 128 958 l 128 0 l 224 0 l 224 443 l 546 443 l 532 529 l 224 529 l 224 872 l 608 872 "},"r":{"x_min":107,"x_max":444.828125,"ha":478,"o":"m 444 584 l 429 670 q 354 657 389 670 q 290 624 319 645 q 237 577 261 603 q 196 522 214 550 l 175 657 l 107 657 l 107 0 l 199 0 l 199 412 q 240 476 215 446 q 297 530 265 506 q 367 569 329 554 q 444 584 404 584 "},":":{"x_min":104,"x_max":212,"ha":315,"o":"m 212 522 l 212 657 l 104 657 l 104 522 l 212 522 m 212 0 l 212 136 l 104 136 l 104 0 l 212 0 "},"x":{"x_min":48.609375,"x_max":604.171875,"ha":653,"o":"m 604 6 l 375 340 l 591 657 l 493 657 l 326 408 l 152 668 l 62 650 l 277 337 l 48 0 l 147 0 l 325 270 l 513 -9 l 604 6 "},"*":{"x_min":68.0625,"x_max":495.828125,"ha":564,"o":"m 495 800 l 486 828 l 313 791 l 297 967 l 265 967 l 248 791 l 76 828 l 68 800 l 227 729 l 138 573 l 163 557 l 281 691 l 400 557 l 423 573 l 334 729 l 495 800 "},"†":{"x_min":71,"x_max":621,"ha":692,"o":"m 386 822 l 386 959 l 307 959 l 307 822 l 331 664 l 361 664 l 386 822 m 621 575 l 621 654 l 558 654 l 397 629 l 397 599 l 558 575 l 621 575 m 296 599 l 296 629 l 132 654 l 71 654 l 71 575 l 132 575 l 296 599 m 384 -1 l 384 424 l 361 566 l 331 566 l 309 424 l 309 -1 l 334 -161 l 359 -161 l 384 -1 "},"V":{"x_min":54.171875,"x_max":890.28125,"ha":944,"o":"m 890 958 l 790 958 l 472 117 l 148 967 l 54 946 l 427 -6 l 513 -6 l 890 958 "},"h":{"x_min":107,"x_max":625,"ha":726,"o":"m 625 0 l 625 470 q 576 618 625 565 q 429 671 527 671 q 306 639 362 671 q 199 564 250 608 l 199 997 l 107 980 l 107 0 l 199 0 l 199 475 q 305 558 253 527 q 411 589 358 589 q 503 552 473 589 q 533 452 533 516 l 533 0 l 625 0 "},"0":{"x_min":83,"x_max":772,"ha":855,"o":"m 772 470 q 748 672 772 582 q 679 825 724 762 q 570 922 634 888 q 427 957 506 957 q 284 922 348 957 q 176 824 220 887 q 107 670 131 761 q 83 468 83 580 q 106 266 83 357 q 175 113 130 176 q 284 16 220 50 q 427 -18 348 -18 q 570 16 506 -18 q 678 114 634 51 q 747 268 723 177 q 772 470 772 358 m 678 469 q 661 302 678 377 q 613 174 644 227 q 534 92 581 120 q 427 64 487 64 q 319 92 366 64 q 241 174 273 120 q 193 302 210 227 q 177 469 177 377 q 193 636 177 561 q 241 764 210 711 q 319 846 273 818 q 427 875 366 875 q 534 846 487 875 q 613 764 581 818 q 661 636 644 711 q 678 469 678 561 "},".":{"x_min":99,"x_max":206,"ha":305,"o":"m 206 0 l 206 136 l 99 136 l 99 0 l 206 0 "},"”":{"x_min":73.609375,"x_max":466.671875,"ha":539,"o":"m 231 959 l 122 959 l 73 661 l 125 649 l 231 959 m 466 959 l 355 959 l 308 661 l 359 649 l 466 959 "},"@":{"x_min":78,"x_max":1086,"ha":1168,"o":"m 679 272 q 583 173 624 204 q 506 142 543 142 q 448 171 470 142 q 427 261 427 200 q 444 378 427 326 q 490 467 461 430 q 555 522 518 503 q 631 542 592 542 q 677 537 657 542 q 718 522 696 532 l 679 272 m 678 193 q 731 104 688 135 q 839 73 774 73 q 935 97 890 73 q 1013 168 980 121 q 1066 281 1047 214 q 1086 434 1086 348 q 1056 614 1086 534 q 970 750 1026 693 q 831 838 913 807 q 647 869 750 869 q 422 822 526 869 q 241 693 318 775 q 121 498 165 610 q 78 254 78 385 q 108 63 78 146 q 197 -77 139 -20 q 338 -164 255 -134 q 525 -194 421 -194 q 699 -175 619 -194 q 837 -127 779 -156 l 831 -87 q 693 -136 768 -119 q 531 -154 618 -154 q 366 -128 440 -154 q 239 -52 291 -103 q 157 75 186 -1 q 128 255 128 151 q 168 487 128 382 q 278 667 208 592 q 442 785 348 743 q 643 827 536 827 q 807 800 733 827 q 932 724 880 774 q 1011 600 983 674 q 1039 432 1039 527 q 1023 298 1039 356 q 982 202 1008 241 q 922 143 956 163 q 851 123 888 123 q 779 150 803 123 q 756 217 756 177 q 756 255 756 236 q 760 286 756 275 l 804 571 q 724 597 767 586 q 637 609 682 609 q 528 583 580 609 q 434 510 475 557 q 370 398 394 463 q 346 254 346 334 q 357 176 346 210 q 387 119 368 142 q 432 84 407 96 q 487 73 458 73 q 582 102 539 73 q 678 193 625 132 "},"f":{"x_min":44,"x_max":389.5625,"ha":413,"o":"m 389 905 l 375 990 q 356 992 365 992 q 328 992 346 992 q 193 950 243 992 q 144 816 144 908 l 144 656 l 44 656 l 44 579 l 144 579 l 144 0 l 234 0 l 234 579 l 381 579 l 368 656 l 234 656 l 234 809 q 260 887 234 864 q 334 910 286 910 q 389 905 370 910 "},";":{"x_min":37,"x_max":220,"ha":314,"o":"m 220 522 l 220 657 l 112 657 l 112 522 l 220 522 m 220 136 l 109 136 l 37 -172 l 87 -184 l 220 136 "},"“":{"x_min":70.828125,"x_max":463.890625,"ha":539,"o":"m 230 954 l 179 966 l 70 657 l 181 657 l 230 954 m 463 954 l 413 966 l 305 657 l 416 657 l 463 954 "},"i":{"x_min":96,"x_max":228,"ha":324,"o":"m 228 880 q 209 927 228 908 q 162 947 190 947 q 115 927 134 947 q 96 880 96 908 q 115 833 96 852 q 162 814 134 814 q 209 833 190 814 q 228 880 228 852 m 207 0 l 207 657 l 117 657 l 117 0 l 207 0 "},"6":{"x_min":85,"x_max":722,"ha":789,"o":"m 182 480 q 314 733 207 639 q 586 874 421 828 l 573 959 q 373 879 464 928 q 219 759 283 829 q 120 594 155 688 q 85 380 85 500 q 109 213 85 287 q 178 87 134 139 q 282 9 222 36 q 415 -18 343 -18 q 536 4 480 -18 q 633 66 592 26 q 698 161 674 105 q 722 285 722 216 q 701 401 722 349 q 644 490 681 453 q 554 546 606 527 q 436 566 501 566 q 303 543 365 566 q 182 480 240 521 m 177 390 q 292 459 231 433 q 421 485 353 485 q 576 428 525 485 q 628 280 628 372 q 570 122 628 181 q 417 63 512 63 q 319 86 362 63 q 243 152 275 110 q 194 254 211 194 q 177 385 177 314 l 177 390 "},"A":{"x_min":54.171875,"x_max":905.5625,"ha":960,"o":"m 905 11 l 530 964 l 431 964 l 54 0 l 151 0 l 269 310 l 688 310 l 812 -9 l 905 11 m 656 395 l 304 395 l 479 852 l 656 395 "},"‘":{"x_min":70.828125,"x_max":230.5625,"ha":304,"o":"m 230 954 l 179 966 l 70 657 l 181 657 l 230 954 "},"n":{"x_min":107,"x_max":625,"ha":726,"o":"m 625 0 l 625 469 q 576 618 625 565 q 429 671 527 671 q 305 639 362 671 q 193 559 247 608 l 178 657 l 107 657 l 107 0 l 199 0 l 199 475 q 305 558 253 527 q 411 589 358 589 q 503 552 473 589 q 533 452 533 516 l 533 0 l 625 0 "},"O":{"x_min":85,"x_max":950,"ha":1035,"o":"m 950 480 q 918 681 950 590 q 830 838 887 772 q 694 940 773 904 q 518 977 615 977 q 342 940 422 977 q 205 838 262 903 q 116 680 148 772 q 85 478 85 587 q 116 277 85 368 q 204 120 147 186 q 340 18 261 54 q 515 -18 419 -18 q 692 18 612 -18 q 829 121 772 55 q 918 279 886 187 q 950 480 950 371 m 851 478 q 827 311 851 386 q 760 182 803 236 q 654 97 716 127 q 518 68 593 68 q 381 97 443 68 q 276 182 319 127 q 208 312 232 236 q 184 480 184 389 q 207 647 184 572 q 274 777 231 722 q 380 861 318 831 q 516 891 441 891 q 653 861 591 891 q 758 777 715 831 q 826 646 802 722 q 851 478 851 569 "},"3":{"x_min":62.9375,"x_max":645,"ha":727,"o":"m 645 254 q 592 412 645 354 q 447 497 539 470 q 517 528 485 509 q 574 574 550 547 q 613 637 599 601 q 627 719 627 673 q 609 810 627 766 q 557 886 592 854 q 470 937 522 918 q 346 957 417 957 q 197 933 261 957 q 78 871 132 909 l 90 783 q 205 848 143 823 q 342 874 267 874 q 483 829 436 874 q 531 715 531 784 q 469 583 531 631 q 286 536 408 536 l 222 536 l 235 454 l 276 454 q 483 399 418 454 q 549 252 549 344 q 489 115 549 166 q 330 65 430 65 q 197 85 255 65 q 78 146 139 105 l 62 55 q 181 2 112 23 q 325 -18 249 -18 q 455 2 396 -18 q 556 58 514 22 q 621 144 597 94 q 645 254 645 194 "},"]":{"x_min":76.71875,"x_max":430,"ha":566,"o":"m 430 -146 l 430 958 l 76 958 l 89 886 l 342 886 l 342 -74 l 83 -74 l 83 -146 l 430 -146 "},"m":{"x_min":107,"x_max":1036,"ha":1137,"o":"m 1036 0 l 1036 470 q 989 618 1036 565 q 844 671 943 671 q 718 638 776 671 q 605 557 659 605 q 544 641 587 611 q 425 671 501 671 q 302 640 358 671 q 193 562 246 609 l 178 657 l 107 657 l 107 0 l 199 0 l 199 477 q 303 559 251 530 q 407 589 356 589 q 499 552 471 589 q 527 452 527 516 l 527 0 l 617 0 l 617 476 q 722 559 671 529 q 824 589 773 589 q 916 552 888 589 q 944 452 944 516 l 944 0 l 1036 0 "},"9":{"x_min":68,"x_max":704,"ha":789,"o":"m 604 444 q 466 195 576 288 q 188 65 356 102 l 202 -19 q 408 57 315 8 q 566 178 501 106 q 667 344 631 249 q 704 558 704 438 q 679 725 704 651 q 612 851 655 800 q 508 929 569 902 q 374 957 447 957 q 249 933 305 957 q 152 868 192 909 q 90 771 112 827 q 68 649 68 715 q 88 529 68 583 q 145 438 108 476 q 236 381 183 401 q 354 361 288 361 q 486 382 425 361 q 604 444 547 404 m 614 534 q 497 467 559 491 q 369 443 436 443 q 213 500 265 443 q 161 653 161 558 q 218 814 161 753 q 373 876 275 876 q 470 853 426 876 q 547 787 515 830 q 596 685 579 745 q 614 554 614 626 l 614 534 "},"l":{"x_min":117,"x_max":207,"ha":325,"o":"m 207 0 l 207 997 l 117 980 l 117 0 l 207 0 "},"8":{"x_min":79,"x_max":714,"ha":793,"o":"m 432 522 q 325 566 369 545 q 256 610 282 587 q 219 660 230 633 q 208 722 208 687 q 220 780 208 752 q 256 830 233 808 q 316 864 280 851 q 399 878 352 878 q 539 834 488 878 q 591 722 591 790 q 548 609 591 661 q 432 522 506 558 m 362 463 q 485 413 435 437 q 565 365 536 390 q 608 309 595 340 q 620 240 620 279 q 603 165 620 198 q 556 109 586 133 q 486 73 526 86 q 399 61 445 61 q 235 109 299 61 q 172 241 172 158 q 223 370 172 313 q 362 463 274 426 m 280 495 q 133 387 188 451 q 79 236 79 323 q 100 136 79 183 q 163 56 122 90 q 263 2 204 22 q 397 -18 322 -18 q 525 1 466 -18 q 625 54 583 20 q 690 136 666 88 q 714 238 714 183 q 661 393 714 336 q 514 491 608 451 q 580 535 549 511 q 633 588 610 559 q 669 651 656 616 q 683 726 683 686 q 662 816 683 775 q 606 889 642 858 q 518 938 570 920 q 402 957 466 957 q 285 938 338 957 q 194 888 233 920 q 135 813 156 857 q 115 720 115 770 q 160 582 115 634 q 280 495 206 530 "},"p":{"x_min":107,"x_max":669.0625,"ha":737,"o":"m 669 347 q 648 490 669 429 q 591 591 627 551 q 507 651 555 632 q 405 671 459 671 q 282 639 333 671 q 193 562 232 607 l 178 657 l 107 657 l 107 -253 l 199 -238 l 199 23 q 278 0 235 8 q 369 -8 321 -8 q 483 13 429 -8 q 578 79 537 35 q 644 190 620 123 q 669 347 669 257 m 576 343 q 560 223 576 273 q 515 137 544 172 q 449 86 487 103 q 366 69 411 69 q 276 79 315 69 q 199 108 237 89 l 199 471 q 290 557 243 525 q 395 589 337 589 q 525 526 474 589 q 576 343 576 464 "},"4":{"x_min":57,"x_max":778,"ha":824,"o":"m 778 222 l 778 298 l 624 298 l 624 942 l 511 942 l 57 286 l 57 222 l 538 222 l 538 0 l 624 0 l 624 222 l 778 222 m 538 298 l 158 298 l 538 841 l 538 298 "},"‡":{"x_min":83,"x_max":633,"ha":718,"o":"m 398 822 l 398 959 l 319 959 l 319 822 l 344 664 l 373 664 l 398 822 m 633 575 l 633 654 l 570 654 l 409 629 l 409 599 l 570 575 l 633 575 m 308 599 l 308 629 l 145 654 l 83 654 l 83 575 l 145 575 l 308 599 m 396 279 l 396 423 l 373 565 l 344 565 l 321 423 l 321 279 l 344 136 l 373 136 l 396 279 m 633 49 l 633 126 l 570 126 l 409 101 l 409 72 l 570 49 l 633 49 m 308 72 l 308 101 l 145 126 l 83 126 l 83 49 l 145 49 l 308 72 m 398 -257 l 398 -120 l 373 38 l 344 38 l 319 -120 l 319 -257 l 398 -257 "},"R":{"x_min":128,"x_max":755.390625,"ha":787,"o":"m 582 692 q 520 553 582 600 q 351 506 458 506 l 224 506 l 224 874 l 368 874 q 527 826 472 874 q 582 692 582 779 m 451 436 q 543 467 501 446 q 614 521 584 489 q 661 598 644 554 q 679 697 679 642 q 596 891 679 824 q 372 959 513 959 l 128 959 l 128 0 l 224 0 l 224 424 l 347 424 l 658 -9 l 755 11 l 451 436 "},"o":{"x_min":67,"x_max":660,"ha":727,"o":"m 660 327 q 637 473 660 409 q 574 581 614 537 q 480 647 535 624 q 361 670 425 670 q 245 647 298 670 q 152 581 191 624 q 89 473 112 537 q 67 327 67 409 q 89 182 67 245 q 151 75 111 119 q 244 8 190 31 q 361 -14 298 -14 q 478 8 423 -14 q 573 75 533 31 q 637 182 614 119 q 660 327 660 245 m 566 327 q 513 137 566 211 q 361 63 461 63 q 275 83 312 63 q 212 139 237 104 q 173 222 186 174 q 160 327 160 270 q 173 434 160 386 q 212 518 186 483 q 275 573 237 554 q 361 593 312 593 q 449 572 411 593 q 513 517 486 552 q 552 433 539 481 q 566 327 566 384 "},"5":{"x_min":70.65625,"x_max":666.0625,"ha":741,"o":"m 666 288 q 644 404 666 352 q 583 492 623 455 q 486 548 543 529 q 357 568 428 568 q 268 560 306 568 q 212 541 231 552 l 212 857 l 631 857 l 617 939 l 129 939 l 129 466 l 174 451 q 251 476 210 466 q 349 486 292 486 q 515 431 457 486 q 573 284 573 377 q 553 188 573 229 q 500 119 534 147 q 423 77 467 91 q 330 64 378 64 q 196 85 255 64 q 84 140 137 107 l 70 51 q 182 1 119 20 q 326 -17 245 -17 q 458 3 396 -17 q 566 63 520 24 q 639 159 611 102 q 666 288 666 216 "}}}
